<svg class="svg-icon" style="width: 1em; height: 1em;vertical-align: middle;fill: #282C34;overflow: hidden;" viewBox="0 0 1024 1024" version="1.1" xmlns="http://www.w3.org/2000/svg"><path d="M341.333333 298.666667C388.266667 298.666667 426.666667 337.066667 426.666667 384L426.666667 597.333333C426.666667 644.266667 388.266667 682.666667 341.333333 682.666667 294.4 682.666667 256 644.266667 256 597.333333L256 384C256 337.066667 294.4 298.666667 341.333333 298.666667M597.333333 597.333333C597.333333 724.053333 505.173333 829.44 384 849.92L384 938.666667 298.666667 938.666667 298.666667 849.92C177.493333 829.44 85.333333 724.053333 85.333333 597.333333L170.666667 597.333333C170.666667 691.626667 247.04 768 341.333333 768 435.626667 768 512 691.626667 512 597.333333L597.333333 597.333333M913.493333 401.493333 732.586667 582.826667 775.68 426.666667 597.333333 426.666667C550.4 426.666667 512 388.266667 512 341.333333L512 170.666667C512 123.733333 550.4 85.333333 597.333333 85.333333L853.333333 85.333333C900.266667 85.333333 938.666667 123.733333 938.666667 170.666667L938.666667 341.333333C938.666667 364.8 929.28 386.133333 913.493333 401.493333Z"  /></svg>